<svg clip-rule="evenodd" fill-rule="evenodd" height="297mm" image-rendering="optimizeQuality" shape-rendering="geometricPrecision" text-rendering="geometricPrecision" viewBox="0 0 21000 29700" width="210mm" xmlns="http://www.w3.org/2000/svg"><mask id="b"><path d="M3374 9130h11131v15986H3374z"/></mask><linearGradient id="a" gradientUnits="userSpaceOnUse" x1="20576" x2="22829" y1="13844" y2="13777"><stop offset="0" stop-color="#fff"/><stop offset="1" stop-color="#fff" stop-opacity=".941"/></linearGradient><path d="M4792 26343c2921-1160 5796-2373 8514-4262 648-514 4034-2717 1287-4302-959-553-4826-335-5672-1005-406-322-500-1105 185-1647l3731-2812 5390-4009-321-417-5068 3602-4048 2824c-1386 1031-1793 2083-1211 3162 195 306 379 479 628 573 281 139 422 160 605 207 3776 975 5262 1065 3472 2225-2730 1001-4445 1228-5538 1491-1834 342-3431 644-4628 367 26 742 395 1295 1107 1659-68 243-29 415 118 514 548 170 655 440 323 808-62 172-18 319 132 441 282 88 375 281 279 577 185 61 535 77 715 5z" fill="#ffed00"/><path d="M12005 9149h802v7703h-802zm2490 7707l834-3v1868l-2506 8 80 6390-3612-4v-10h2842l-80-6386 2443-6v-1857zm-5492 1873H3671v-10h5332z" fill="#1f1b20" stroke="#2b2a29" stroke-width="20"/><path d="M3384 17060l6217-7920h2404v7712h2490v1862l-2443 6 80 6386H9003v-6386H3384z" fill="none" mask="url(#b)" stroke="#2b2a29" stroke-width="20"/><path d="M8724 12180l405 4v5008H5696c-189 8-266-144-239-462zm108 782l184 1 4 4012-2697-2c-85-29-123-110-71-236l2579-3776z" fill="#1f1b20" stroke="#2b2a29" stroke-width="20"/><path d="M9128 12184v5008H5695c-189 8-266-144-239-462l3267-4550zm473-3018l-6217 7894v1660h5619v6386h3129l-80-6386 2443-6v-1861h-2490V9167H9601z" fill="#fefefe" stroke="#2b2a29" stroke-width="50"/><path d="M8918 14220l68-47zm1690-197l-631 482zm-1632 1196l-91 123zm1001-713l631-482 1397-1068 869-668 6-825-875 609-2876 2002-150 104-2 1063c337-227 676-489 1000-735z" fill="#ffed00"/><g stroke="#2b2a29"><path d="M17300 7749c366-296 718-499 1048-600m-421 1696c-24 370-34 534-63 580-146-42-282-42-368-24m-382-1463c-456-21-570-50-681 48 184 172 105 327 105 327m1572 309c-700 839-909 1202-937 1357-171-183-234-240-234-240 162-465 181-755 73-925-187-89-441-86-759 9-171-189-256-284-256-284 604-212 1040-477 1308-796m1445-9c383-365 532-667 448-906-195-80-478 27-851 320-10 195 124 390 403 586-102 272-316 568-640 887-459-129-727-422-805-878m514 761l546-546m-749 398l303-303m-465 103l140-140" fill="none" stroke-width="20"/><path d="M18347 7148c-10 195 124 390 403 586 383-365 532-667 448-906-195-80-478 27-851 320z" fill="#ffed00" stroke-width="20"/><path d="M18750 7734c-279-195-413-390-403-586-328 100-679 303-1043 596 27 157 76 294 148 412 45 74 99 141 162 200 60 56 128 105 204 147 87 48 183 87 291 117 325-320 538-616 640-887zM17113 7937c-456-21-570-50-681 48 184 172 105 327 105 327 228-114 419-239 576-376z" fill="#7688a1" stroke-width="20"/><path d="M17113 7937c-156 137-348 262-576 376-162 81-343 157-541 226l256 284c319-95 572-98 759-9 107 170 89 460-73 925 0 0 63 57 234 240 17-95 102-267 325-579 108-150 248-333 428-556 57-70 118-144 184-223-107-30-204-69-291-117-76-42-144-91-204-147-63-59-117-125-162-200-72-118-121-255-148-412-2 1-3 3-5 4-55 65-118 128-187 188z" fill="#7688a1" stroke-width="20"/><path d="M17926 8844c-180 222-320 405-428 556 86-18 221-17 365 24 29-46 39-210 63-580z" fill="#7688a1" stroke-width="20"/><path d="M4232 22815c389 0 725 224 888 550 34-4 68-6 103-6 457 0 834 343 887 786 30-6 62-9 94-9 274 0 495 222 495 495 0 17-1 34-3 51 232 61 404 273 404 524 0 299-243 542-542 542-118 0-227-38-316-101 6 37 10 75 10 113 0 369-299 668-668 668-160 0-306-56-421-149-191 145-429 231-687 231-627 0-1135-508-1135-1135 0-298 115-569 303-772-245-180-403-471-403-798 0-547 444-991 991-991z" fill="#fefefe" stroke-width="20"/><path d="M2181 22257c229-89 479-34 650 121 19-10 39-19 60-27 270-105 571 11 704 260 17-10 34-19 53-27 161-63 343 17 406 179 4 10 7 20 10 30 151-17 301 68 359 217 69 177-19 376-195 444-69 27-142 30-209 13 12 20 23 42 32 65 85 218-23 463-241 548-94 37-194 37-283 9-79 129-200 235-352 294-370 144-786-39-930-409-68-176-63-362 2-525-186-50-346-185-421-378-126-323 34-687 357-812z" fill="#fefefe" stroke-width="20"/><path d="M3484 23167c231 0 431 133 528 327 20-2 41-4 61-4 272 0 496 204 528 468 18-3 37-5 56-5 163 0 295 132 295 295 0 10-1 20-2 30 138 36 240 162 240 312 0 178-144 323-323 323-70 0-135-22-188-60 4 22 6 44 6 67 0 220-178 398-398 398-95 0-182-33-251-89-113 86-255 137-408 137-373 0-675-302-675-675 0-177 68-339 180-459-146-107-240-280-240-475 0-326 264-589 589-589z" fill="#fefefe" stroke-width="20"/><path d="M3459 22443c1567-124 3415-446 5545-964M9003 24544c-1049 482-1698 773-1945 873M12841 19414c244 170 242 402 4 639M12869 22378c1590-1057 2499-1981 2726-2772 127-435 18-874-266-1239M9020 16839c-533-394-601-1021-24-1612 414-316 830-609 1216-902 943-717 1800-1369 2572-1955 1989-1508 3416-2579 4292-3209" fill="none" stroke-width="20"/><path d="M7380 16974c-186-597 24-1253 631-1968 186-228 598-566 1238-1011 4965-3498 7448-5247 7448-5247" fill="none" stroke-width="20"/><path d="M12130 24768H9595M12118 23983h-2027M12106 22993h-1483M12106 21913h-1052M12084 21237h-727M12084 20556h-488" fill="none" stroke-width="150"/><path d="M4065 22792l-10-30c-63-161-245-241-406-179-19 7-37 16-53 27-35-66-82-122-136-167-153-127-369-170-568-93-21 8-40 17-60 27-171-155-421-210-650-121-323 126-483 489-357 812 75 193 235 328 421 378-64 163-70 349-2 525 123 315 444 495 765 452 31-71 73-136 126-193-135-99-226-255-238-432-1-14-2-29-2-43 0-322 259-584 580-589h10c231 0 431 133 528 327 7-1 14-1 21-2-5-9-9-18-15-26 67 17 140 14 209-13 177-69 264-268 195-444-36-92-107-160-191-194-52-21-110-29-167-23z" fill="#d9dada" stroke-width="20"/><path d="M4033 23492c-7 1-14 1-21 2-96-194-297-327-528-327h-10c-321 5-580 267-580 589l2 43c13 177 104 332 238 432-52 56-95 121-126 193-35 82-55 172-55 267 0 271 159 504 390 612 87 41 183 63 286 63h22c145-5 278-55 386-137 68 56 156 89 251 89 220 0 398-178 398-398 0-23-2-45-6-67 53 38 118 60 188 60 178 0 323-144 323-323 0-150-102-276-240-312l2-30c0-163-132-295-295-295-19 0-38 2-56 5-32-263-256-468-528-468-14 0-27 1-40 2z" fill="#ebecec" stroke-width="20"/></g></svg>